<svg xmlns="http://www.w3.org/2000/svg" version="1.1" xmlns:xlink="http://www.w3.org/1999/xlink" width="45" height="45"><svg width="45" height="45" fill="none" class="header__logo" viewBox="0 0 45 45" version="1.1" id="SvgjsSvg1013" sodipodi:docname="image.svg" inkscape:version="1.2.2 (b0a84865, 2022-12-01)" xmlns:inkscape="http://www.inkscape.org/namespaces/inkscape" xmlns:sodipodi="http://sodipodi.sourceforge.net/DTD/sodipodi-0.dtd" xmlns="http://www.w3.org/2000/svg" xmlns:svg="http://www.w3.org/2000/svg">
  <defs id="SvgjsDefs1012">
    <inkscape:path-effect effect="fillet_chamfer" id="SvgjsInkscape:path-effect1011" is_visible="true" lpeversion="1" nodesatellites_param="F,0,1,1,0,8.4627875,0,1 @ F,0,1,1,0,8.4627875,0,1 @ F,0,0,1,0,8.4627875,0,1 @ F,0,1,1,0,8.4627875,0,1" unit="px" method="arc" mode="F" radius="8" chamfer_steps="1" flexible="false" use_knot_distance="true" apply_no_radius="true" apply_with_radius="true" only_selected="false" hide_knots="false"></inkscape:path-effect>
  </defs>
  <sodipodi:namedview id="SvgjsSodipodi:namedview1010" pagecolor="#ffffff" bordercolor="#000000" borderopacity="0.25" inkscape:showpageshadow="2" inkscape:pageopacity="0.0" inkscape:pagecheckerboard="0" inkscape:deskcolor="#d1d1d1" showgrid="false" inkscape:zoom="8.6432764" inkscape:cx="16.949591" inkscape:cy="17.296682" inkscape:window-width="1728" inkscape:window-height="1051" inkscape:window-x="0" inkscape:window-y="869" inkscape:window-maximized="1" inkscape:current-layer="svg186"></sodipodi:namedview>
  <g id="SvgjsG1009">
    <path style="color:#000000;fill:#000000;-inkscape-stroke:none" d="m 8.4627873,2e-7 28.0744257,0 A 8.4627875,8.4627875 45 0 1 45,8.4627877 V 36.537212 A 8.4627875,8.4627875 135 0 1 36.537213,45 H 8.4627873 A 8.4627875,8.4627875 45 0 1 -1.5e-7,36.537212 V 8.4627877 A 8.4627875,8.4627875 135 0 1 8.4627873,2e-7 Z" id="SvgjsPath1008" inkscape:path-effect="#path-effect3931" inkscape:original-d="M -1.5e-7,2e-7 H 45 V 45 H -1.5e-7 Z" sodipodi:nodetypes="ccccc"></path>
  </g>
  <path stroke="#ff70d9" stroke-linecap="square" stroke-linejoin="round" stroke-width="1.5" d="m 36.62349,32.9265 c -0.662,-0.886 -1.642,-1.567 -3.063,-1.345 -3.286,0.514 -1.54,-2.053 -3.902,-1.026 -1.889,0.821 -3.25,3.148 -3.696,4.21 -0.136,-0.651 -0.657,-2.075 -1.642,-2.568 -1.232,-0.616 -1.643,0.411 -2.362,-0.616 -0.718,-1.026 -0.718,-2.464 -1.334,-3.901 -0.616,-1.437 2.053,-3.593 3.696,-2.772 1.642,0.821 2.67,0.308 3.49,1.54 0.822,1.232 1.848,2.772 1.848,-1.54 0,-4.312 2.054,-6.263 2.978,-6.16 0.924,0.103 3.799,-0.924 3.285,-1.95 -0.513,-1.027 -3.285,-1.54 -3.285,-2.465 0,-0.925 1.232,-2.874 0,-3.798 -1.232,-0.924 -4.312,-2.772 -6.674,-2.567 -2.36,0.206 -3.088,1.13 -3.088,1.951 0,0.821 3.088,2.362 1.446,3.388 -1.642,1.026 -6.982,2.669 -6.982,1.026 0,-1.642 -0.308,-5.132 0.72,-5.132 1.026,0 1.334,-2.567 1.95,-2.464 0.616,0.102 3.182,-1.027 4.312,-0.514 0.346,0.158 1.484,-0.138 2.765,-0.672 m 9.538,27.375 a 17.48,17.48 0 0 0 3.43,-10.426 c 0,-8.109 -5.497,-14.933 -12.968,-16.95 m 9.538,27.376 c -3.198,4.324 -8.333,7.127 -14.123,7.127 q -1.548,-10e-4 -3.023,-0.259 m 0,0 c 0.132,-0.764 0.306,-1.395 0.53,-1.745 0.925,-1.437 4.005,-0.41 4.313,-1.129 0.308,-0.719 -1.027,-1.54 -2.362,-2.156 -1.334,-0.616 -3.593,-1.232 -3.9,-4.21 -0.309,-2.977 -1.746,-2.463 -2.054,-2.874 -0.308,-0.41 -3.902,-1.54 -5.031,-3.593 -1.1300001,-2.054 0,-5.544 0,-6.468 0,-0.653 -2.8330001,-1.355 -4.7430001,-1.721 M 19.47649,39.7945 c -8.253,-1.433 -14.5300001,-8.63 -14.5300001,-17.294 0,-2.336 0.456,-4.564 1.284,-6.602 m 0,0 c 2.609,-6.423 8.9100001,-10.952 16.2700001,-10.952 1.586,0 3.123,0.21 4.585,0.605" id="SvgjsPath1007"></path>
</svg><style>@media (prefers-color-scheme: light) { :root { filter: none; } }
@media (prefers-color-scheme: dark) { :root { filter: none; } }
</style></svg>