<svg xmlns="http://www.w3.org/2000/svg" width="105" height="37" fill="none" viewBox="0 0 105 37"><path fill="#ff70d9" d="M90.053 5.139c-2.907 0-5.748.746-8.166 2.146-2.417 1.4-4.3 3.388-5.413 5.716-1.113 2.327-1.404 4.888-.837 7.359s1.966 4.74 4.022 6.522c2.055 1.78 4.674 2.994 7.526 3.485 2.85.492 5.806.24 8.492-.724 2.685-.964 4.981-2.597 6.595-4.691 1.616-2.095 2.478-4.557 2.478-7.077-.005-3.376-1.554-6.613-4.309-9.001S93.95 5.143 90.053 5.139m0 20.57c-1.787 0-3.535-.459-5.022-1.32-1.487-.86-2.646-2.084-3.33-3.515a6.87 6.87 0 0 1-.515-4.526c.349-1.52 1.21-2.916 2.474-4.011s2.875-1.842 4.629-2.145a10.34 10.34 0 0 1 5.222.446c1.653.593 3.064 1.597 4.058 2.885.992 1.289 1.523 2.803 1.523 4.352-.003 2.077-.957 4.068-2.652 5.536-1.694 1.468-3.99 2.295-6.387 2.298M56.406 5.14c-2.907 0-5.748.747-8.165 2.146s-4.301 3.389-5.414 5.716-1.403 4.889-.836 7.36 1.967 4.74 4.022 6.52c2.056 1.782 4.675 2.995 7.526 3.487 2.85.491 5.806.239 8.492-.725 2.685-.964 4.98-2.597 6.596-4.691 1.615-2.095 2.477-4.557 2.477-7.077-.005-3.376-1.555-6.614-4.31-9.001-2.755-2.388-6.491-3.731-10.388-3.735m0 20.57c-1.666.001-3.3-.397-4.72-1.15-1.421-.753-2.575-1.832-3.333-3.117-.758-1.286-1.092-2.727-.965-4.167s.712-2.82 1.688-3.99 2.306-2.083 3.843-2.639a10.3 10.3 0 0 1 4.868-.512c1.647.222 3.19.833 4.46 1.766 1.271.934 2.22 2.153 2.74 3.524h-8.58v4.903h8.58c-.596 1.564-1.746 2.926-3.287 3.892s-3.392 1.488-5.294 1.49"/><path stroke="#ff70d9" stroke-linecap="square" stroke-linejoin="round" stroke-width="1.5" d="M32.427 28.73c-.662-.886-1.642-1.567-3.063-1.345-3.286.514-1.54-2.053-3.902-1.026-1.889.821-3.25 3.148-3.696 4.21-.136-.651-.657-2.075-1.642-2.568-1.232-.616-1.643.411-2.362-.616-.718-1.026-.718-2.464-1.334-3.901s2.053-3.593 3.696-2.772c1.642.821 2.67.308 3.49 1.54.822 1.232 1.848 2.772 1.848-1.54s2.054-6.263 2.978-6.16 3.799-.924 3.285-1.95c-.513-1.027-3.285-1.54-3.285-2.465s1.232-2.874 0-3.798-4.312-2.772-6.674-2.567c-2.36.206-3.088 1.13-3.088 1.951s3.088 2.362 1.446 3.388-6.982 2.669-6.982 1.026c0-1.642-.308-5.132.72-5.132 1.026 0 1.334-2.567 1.95-2.464.616.102 3.182-1.027 4.312-.514.346.158 1.484-.138 2.765-.672m9.538 27.375a17.48 17.48 0 0 0 3.43-10.426c0-8.109-5.497-14.933-12.968-16.95m9.538 27.376c-3.198 4.324-8.333 7.127-14.123 7.127q-1.548-.001-3.023-.259m0 0c.132-.764.306-1.395.53-1.745.925-1.437 4.005-.41 4.313-1.129s-1.027-1.54-2.362-2.156c-1.334-.616-3.593-1.232-3.9-4.21-.309-2.977-1.746-2.463-2.054-2.874-.308-.41-3.902-1.54-5.031-3.593-1.13-2.054 0-5.544 0-6.468 0-.653-2.833-1.355-4.743-1.721M15.28 35.598C7.027 34.165.75 26.968.75 18.304c0-2.336.456-4.564 1.284-6.602m0 0C4.643 5.279 10.944.75 18.304.75c1.586 0 3.123.21 4.585.605"/></svg>