<svg xmlns="http://www.w3.org/2000/svg" width="24" height="20" fill="none" viewBox="0 0 24 20"><linearGradient id="a"><stop offset="26.02%"/><stop offset="90.57%"/></linearGradient><path fill="url(#a)" fill-rule="evenodd" d="M9.234 18.182a1.827 1.827 0 0 0-1.847-1.819c-1.025 0-1.847.81-1.847 1.819S6.362 20 7.387 20s1.847-.81 1.847-1.818m12.927 0a1.827 1.827 0 0 0-1.847-1.819c-1.024 0-1.847.81-1.847 1.819S19.29 20 20.314 20s1.847-.81 1.847-1.818m1.846-15.455a.923.923 0 0 0-.923-.909H5.757C5.612 1.136 5.597 0 4.617 0H.923A.923.923 0 0 0 0 .909c0 .497.418.91.923.91h2.944l2.553 11.69c-.202.411-.88 1.505-.88 1.945 0 .498.419.91.924.91h14.773a.92.92 0 0 0 .924-.91.923.923 0 0 0-.924-.909H7.964c.144-.284.346-.582.346-.909 0-.326-.13-.681-.187-.994l15.062-1.733a.925.925 0 0 0 .822-.91z" clip-rule="evenodd"/></svg>
